<svg width="69" height="34" viewBox="0 0 69 34" fill="none" xmlns="http://www.w3.org/2000/svg">
<g clip-path="url(#clip0_96_102)">
<path d="M0 50.1603C8.28427 50.1603 15 42.6943 15 33.4846C15 24.2749 8.28427 16.809 0 16.809C-8.28427 16.809 -15 24.2749 -15 33.4846C-15 42.6943 -8.28427 50.1603 0 50.1603Z" fill="#24584F"/>
<path d="M30 50.1603C38.2843 50.1603 45 42.6943 45 33.4846C45 24.2749 38.2843 16.809 30 16.809C21.7157 16.809 15 24.2749 15 33.4846C15 42.6943 21.7157 50.1603 30 50.1603Z" fill="#24584F"/>
<path d="M0 16.809C8.28427 16.809 15 9.34301 15 0.133297C15 -9.07641 8.28427 -16.5424 0 -16.5424C-8.28427 -16.5424 -15 -9.07641 -15 0.133297C-15 9.34301 -8.28427 16.809 0 16.809Z" fill="#24584F"/>
<path d="M30 16.809C38.2843 16.809 45 9.34301 45 0.133297C45 -9.07641 38.2843 -16.5424 30 -16.5424C21.7157 -16.5424 15 -9.07641 15 0.133297C15 9.34301 21.7157 16.809 30 16.809Z" fill="#24584F"/>
</g>
<g clip-path="url(#clip1_96_102)">
<path d="M36 36.8198C40.9706 36.8198 45 32.3402 45 26.8144C45 21.2886 40.9706 16.809 36 16.809C31.0294 16.809 27 21.2886 27 26.8144C27 32.3402 31.0294 36.8198 36 36.8198Z" fill="#24584F"/>
<path d="M54 36.8198C58.9706 36.8198 63 32.3402 63 26.8144C63 21.2886 58.9706 16.809 54 16.809C49.0294 16.809 45 21.2886 45 26.8144C45 32.3402 49.0294 36.8198 54 36.8198Z" fill="#24584F"/>
<path d="M36 16.809C40.9706 16.809 45 12.3294 45 6.80361C45 1.27778 40.9706 -3.20178 36 -3.20178C31.0294 -3.20178 27 1.27778 27 6.80361C27 12.3294 31.0294 16.809 36 16.809Z" fill="#24584F"/>
<path d="M54 16.809C58.9706 16.809 63 12.3294 63 6.80361C63 1.27778 58.9706 -3.20178 54 -3.20178C49.0294 -3.20178 45 1.27778 45 6.80361C45 12.3294 49.0294 16.809 54 16.809Z" fill="#24584F"/>
</g>
<g clip-path="url(#clip2_96_102)">
<path d="M60 26.1473C62.3196 26.1473 64.2 24.0569 64.2 21.4781C64.2 18.8994 62.3196 16.809 60 16.809C57.6805 16.809 55.8 18.8994 55.8 21.4781C55.8 24.0569 57.6805 26.1473 60 26.1473Z" fill="#24584F"/>
<path d="M68.4 26.1473C70.7195 26.1473 72.6 24.0569 72.6 21.4781C72.6 18.8994 70.7195 16.809 68.4 16.809C66.0804 16.809 64.2 18.8994 64.2 21.4781C64.2 24.0569 66.0804 26.1473 68.4 26.1473Z" fill="#24584F"/>
<path d="M60 16.8089C62.3196 16.8089 64.2 14.7185 64.2 12.1398C64.2 9.56105 62.3196 7.47058 60 7.47058C57.6805 7.47058 55.8 9.56105 55.8 12.1398C55.8 14.7185 57.6805 16.8089 60 16.8089Z" fill="#24584F"/>
<path d="M68.4 16.8089C70.7195 16.8089 72.6 14.7185 72.6 12.1398C72.6 9.56105 70.7195 7.47058 68.4 7.47058C66.0804 7.47058 64.2 9.56105 64.2 12.1398C64.2 14.7185 66.0804 16.8089 68.4 16.8089Z" fill="#24584F"/>
</g>
<defs>
<clipPath id="clip0_96_102">
<rect width="30" height="33.3513" fill="white" transform="translate(0 0.133301)"/>
</clipPath>
<clipPath id="clip1_96_102">
<rect width="18" height="20.0108" fill="white" transform="translate(36 6.80359)"/>
</clipPath>
<clipPath id="clip2_96_102">
<rect width="8.4" height="9.33837" fill="white" transform="translate(60 12.1398)"/>
</clipPath>
</defs>
</svg>
