<svg width="98" height="98" viewBox="0 0 98 98" fill="none" xmlns="http://www.w3.org/2000/svg">
<path fill-rule="evenodd" clip-rule="evenodd" d="M26.2112 85.5679L27.7138 88.2228L27.7159 88.2265C28.8414 90.2285 28.1279 92.7828 26.1373 93.9071L21.1794 96.7173L21.1747 96.7198C19.1728 97.8453 16.6185 97.132 15.4936 95.1404L0.913948 69.3785C-0.221738 67.3749 0.491791 64.8183 2.48473 63.6926L7.44846 60.8826L7.44964 60.8818C9.44179 59.7567 11.9971 60.4641 13.1314 62.4561L13.1336 62.4596L14.373 64.6496L27.521 57.0373C31.3763 54.8077 35.313 53.34 39.5473 54.7151C43.7271 56.0704 50.5514 58.9906 57.5155 60.249C57.5847 60.2616 57.653 60.2787 57.7198 60.3004C61.1336 61.4057 63.2136 64.8545 62.2814 68.321C62.0957 69.0122 61.832 69.6396 61.4957 70.1961C62.4206 69.9808 63.321 69.6237 64.2034 69.1094L81.8818 58.8134C88.1726 55.1487 92.362 55.512 94.7359 57.1047C96.7536 58.4585 97.6845 60.7716 97.6244 63.0404C97.5636 65.3306 96.4785 67.5216 94.6824 68.6277L62.6038 88.3781C59.2749 90.4326 55.6287 90.9139 51.8512 89.9063L51.8494 89.9059L29.2075 83.8377L26.2112 85.5679ZM12.4149 67.5596L10.4047 64.0077L10.4034 64.0051C10.12 63.5122 9.48728 63.3341 8.99277 63.6134L4.03022 66.4228L4.02885 66.4236C3.53552 66.7022 3.36218 67.3357 3.64316 67.8314L3.64375 67.8322L18.2239 93.5953L18.2245 93.5965C18.504 94.091 19.1389 94.2645 19.6359 93.9859L24.5904 91.1779L24.5924 91.1767C25.0871 90.8973 25.2606 90.2622 24.9818 89.7649L22.7218 85.7716L22.7081 85.7475L12.4304 67.5869C12.4251 67.5779 12.42 67.5688 12.4149 67.5596ZM24.6661 82.8375L28.2016 80.7959C28.38 80.6929 28.5769 80.626 28.7812 80.5991C28.9855 80.5722 29.193 80.5859 29.392 80.6392L52.6602 86.8751C55.574 87.6524 58.3885 87.2932 60.9561 85.7083L60.9575 85.7075L93.0373 65.9563C93.9157 65.4153 94.382 64.3324 94.474 63.2187C94.6149 61.5081 93.8057 59.6239 91.6896 59.1806C89.7875 58.7822 87.1061 59.4008 83.4608 61.5243L65.783 71.82C62.9871 73.4494 60.0567 73.8985 56.8634 73.3902L56.8579 73.3892L54.664 73.0324C54.642 73.0287 54.6202 73.0247 54.5985 73.0202C50.6124 72.202 46.9157 70.9977 42.8136 69.8951C41.9775 69.6704 41.481 68.8092 41.7057 67.9732C41.9304 67.1371 42.7916 66.6408 43.6277 66.8653C47.6447 67.9449 51.2657 69.1287 55.1659 69.9339C57.2524 70.1683 58.7722 69.2928 59.2514 67.5071L59.2516 67.5065C59.7389 65.6949 58.6079 63.9336 56.8443 63.3157C49.763 62.0183 42.8302 59.0775 38.5792 57.6992L38.5787 57.699C35.223 56.6092 32.1471 57.9861 29.092 59.753L15.9183 67.3802L24.6661 82.8375ZM8.38081 66.8106C9.50611 66.6432 10.551 67.42 10.7185 68.5453C10.8792 69.6706 10.1024 70.7222 8.97709 70.883C7.85179 71.0504 6.80689 70.2667 6.63944 69.1414C6.47865 68.0161 7.25571 66.9712 8.38081 66.8106ZM51.0877 24.7051L43.9087 24.4271C43.5905 24.4147 43.2836 24.3057 43.0288 24.1148C42.774 23.9238 42.5834 23.6598 42.4822 23.3579C42.3811 23.056 42.3742 22.7304 42.4625 22.4245C42.5508 22.1185 42.73 21.8467 42.9765 21.6451L69.021 0.354134C69.3012 0.125111 69.652 0 70.0139 0C70.3757 0 70.7265 0.125111 71.0067 0.354134L97.0512 21.6451C97.2977 21.8467 97.477 22.1185 97.5652 22.4244C97.6535 22.7303 97.6466 23.0559 97.5455 23.3578C97.4444 23.6597 97.2538 23.9237 96.999 24.1147C96.7442 24.3057 96.4374 24.4146 96.1193 24.4271L88.9402 24.7051V53.6579C88.9402 54.0739 88.775 54.4729 88.4808 54.7671C88.1866 55.0612 87.7876 55.2265 87.3716 55.2265H52.6563C52.2403 55.2265 51.8413 55.0612 51.5471 54.7671C51.2529 54.4729 51.0877 54.0739 51.0877 53.6579V24.7051ZM85.803 23.831L70.014 10.9237L54.2249 23.831V52.0892H85.803V23.831ZM71.0067 7.68335L88.0316 21.6008L91.8587 21.4526L70.014 3.59472L48.1691 21.4526L51.9963 21.6008L69.021 7.68335C69.3012 7.45426 69.6519 7.3291 70.0139 7.3291C70.3758 7.3291 70.7265 7.45426 71.0067 7.68335ZM70.014 45.4467C63.2451 45.4467 57.7243 39.9257 57.7243 33.1571C57.7243 26.3885 63.2451 20.8677 70.014 20.8677C76.7826 20.8677 82.3034 26.3885 82.3034 33.1571C82.3034 39.9257 76.7826 45.4467 70.014 45.4467ZM70.014 42.3094C75.0547 42.3094 79.1661 38.1979 79.1661 33.1571C79.1661 28.1163 75.0547 24.0049 70.014 24.0049C64.9732 24.0049 60.8616 28.1163 60.8616 33.1571C60.8616 38.1979 64.9732 42.3094 70.014 42.3094ZM68.4453 26.5649V26.3751C68.4453 25.5094 69.1481 24.8065 70.014 24.8065C70.8796 24.8065 71.5826 25.5094 71.5826 26.3751V26.5492C72.8567 26.9347 74.0016 27.8249 74.6187 29.2951C74.7794 29.6788 74.7813 30.1106 74.6238 30.4956C74.4664 30.8807 74.1626 31.1875 73.7791 31.3486C73.3954 31.5094 72.9637 31.5113 72.5787 31.3539C72.1937 31.1965 71.8869 30.8927 71.7257 30.5092C71.2847 29.4585 70.0971 29.2724 69.2516 29.6049C68.8394 29.7671 68.4771 30.0749 68.5012 30.5585V30.5624C68.5177 30.9096 68.7716 31.0853 69.04 31.2163C69.4204 31.4022 69.8616 31.502 70.2767 31.5694L70.2794 31.57C72.4063 31.9202 74.6865 32.951 74.9908 35.4792C75.2761 37.8359 73.5471 39.3012 71.5826 39.8012V39.9428C71.5826 40.8085 70.8796 41.5114 70.014 41.5114C69.1481 41.5114 68.4453 40.8085 68.4453 39.9428V39.7779C66.8351 39.3265 65.4914 38.179 65.0542 36.4222C64.9539 36.0185 65.018 35.5915 65.2324 35.235C65.4468 34.8785 65.7939 34.6217 66.1975 34.521C66.6012 34.4208 67.0281 34.4849 67.3846 34.6993C67.741 34.9136 67.9978 35.2607 68.0985 35.6643C68.3191 36.5504 69.2481 36.8779 70.1147 36.8563H70.1181C70.5342 36.8469 70.9871 36.7616 71.3691 36.5743C71.6547 36.4345 71.9212 36.2265 71.8763 35.8561L71.8761 35.8543C71.8236 35.4171 71.4998 35.1994 71.154 35.0422C70.7214 34.8457 70.2294 34.7412 69.7726 34.6659C67.671 34.3237 65.4869 33.2037 65.3677 30.713C65.2718 28.7728 66.4496 27.3359 68.1032 26.6855C68.2151 26.6414 68.3294 26.6012 68.4453 26.5649Z" fill="#24584F"/>
</svg>
