<svg width="98" height="98" viewBox="0 0 98 98" fill="none" xmlns="http://www.w3.org/2000/svg">
<path d="M72.0303 46.2727C67.7879 46.2727 63.697 45.2121 60.2121 43.0909L50.9697 44.7576C50.5152 44.9091 49.9091 44.7576 49.6061 44.303C49.303 44 49.1515 43.3939 49.1515 42.9394L50.9697 32.4848C49.7576 29.4545 49 26.4242 49 23.3939C49.1515 10.8182 59.4545 0.515137 72.0303 0.515137C84.6061 0.515137 94.9091 10.8182 94.9091 23.3939C94.9091 35.9697 84.6061 46.2727 72.0303 46.2727ZM60.5152 39.9091C60.8182 39.9091 61.1212 40.0606 61.2727 40.2121C64.4545 42.1818 68.0909 43.2424 72.0303 43.2424C82.9394 43.2424 91.8788 34.303 91.8788 23.3939C91.8788 12.4848 82.9394 3.54544 72.0303 3.54544C61.1212 3.54544 52.1818 12.4848 52.1818 23.3939C52.1818 26.1212 52.7879 29 54 31.7273C54.1515 32.0303 54.1515 32.3333 54.1515 32.6364L52.6364 41.4242L60.3636 40.0606C60.3636 39.9091 60.3636 39.9091 60.5152 39.9091Z" fill="#24584F"/>
<path d="M83.5454 22.0303H60.6666C59.303 21.8788 58.2424 20.9697 57.9394 19.7576C57.6363 18.697 57.9394 17.6364 58.6969 16.8788L70.2121 6.12125C70.6666 5.51519 71.4242 5.21216 72.1818 5.21216C72.9394 5.21216 73.6969 5.51519 74.1515 6.12125L85.5151 17.1819C86.2727 17.7879 86.5757 19 86.2727 20.2122C85.8181 21.2728 84.7575 22.0303 83.5454 22.0303ZM60.9697 19H83.0909L72.1818 8.39398L60.9697 19Z" fill="#24584F"/>
<path d="M82.7879 37.4849H61.2727C60.3636 37.4849 59.7576 36.8788 59.7576 35.9697V20.3637C59.7576 19.4546 60.3636 18.8485 61.2727 18.8485H82.7879C83.697 18.8485 84.303 19.4546 84.303 20.3637V35.9697C84.303 36.8788 83.697 37.4849 82.7879 37.4849ZM62.7879 34.4546H81.2727V21.8788H62.7879V34.4546Z" fill="#24584F"/>
<path d="M75.6666 37.6364H68.5454C67.6364 37.6364 67.0303 37.0303 67.0303 36.1213V25.9697C67.0303 25.0607 67.6364 24.4546 68.5454 24.4546H75.6666C76.5757 24.4546 77.1818 25.0607 77.1818 25.9697V36.1213C77.1818 37.0303 76.5757 37.6364 75.6666 37.6364ZM70.0606 34.6061H74.1515V27.4849H70.0606V34.6061ZM53.3939 64.4546C52.7879 64.4546 52.3333 64.1516 52.0303 63.697C51.1212 62.0304 49.7576 60.8182 47.9394 59.9091L36.7273 55.0607C36.1212 54.7576 35.8182 54.3031 35.8182 53.697V45.5152C35.8182 44.6061 36.4242 44 37.3333 44C38.2424 44 38.8485 44.6061 38.8485 45.5152V52.6364L49.1515 57.0303C51.5757 58.091 53.5454 59.7576 54.7576 62.0303C55.2121 62.7879 54.9091 63.697 54.1515 64.1516C53.8485 64.4546 53.697 64.4546 53.3939 64.4546ZM46.8788 97.4849H9.90908C4.75756 97.4849 0.515137 93.394 0.515137 88.2425V67.7879C0.515137 63.091 3.39392 58.8485 7.63635 57.1819L18.697 52.7879V47.7879C18.697 46.8788 19.303 46.2728 20.2121 46.2728C21.1212 46.2728 21.7273 46.8788 21.7273 47.7879V53.8485C21.7273 54.4546 21.4242 55.0607 20.8182 55.2122L8.84847 60.0607C5.66665 61.2728 3.54544 64.3031 3.54544 67.7879V88.2425C3.54544 91.7273 6.42423 94.4546 9.90908 94.4546H46.8788C50.5151 94.4546 53.2424 91.7273 53.2424 88.091V85.6667C53.2424 84.7576 53.8485 84.1516 54.7576 84.1516C55.6666 84.1516 56.2727 84.7576 56.2727 85.6667V88.091C56.2727 93.394 52.1818 97.4849 46.8788 97.4849Z" fill="#24584F"/>
<path d="M28.2424 50.9697C18.6969 50.9697 11.4242 40.3636 11.4242 31.1212C11.4242 21.7272 19 14.1515 28.3939 14.1515C37.7878 14.1515 45.2121 21.5757 45.2121 31.1212C45.2121 40.3636 37.7878 50.9697 28.2424 50.9697ZM28.3939 17.1818C20.6666 17.1818 14.4545 23.3939 14.4545 31.1212C14.4545 38.8485 20.5151 47.9394 28.2424 47.9394C35.9696 47.9394 42.1818 38.6969 42.1818 31.1212C42.1818 23.2424 36.1212 17.1818 28.3939 17.1818Z" fill="#24584F"/>
<path d="M43.697 34.1516C43.2424 34.1516 42.9394 34 42.6364 33.697C41.5758 32.6364 37.6364 29.1515 34 31.2728C30.8182 32.9394 27.7879 33.2425 24.4546 31.7273C21.5758 30.5152 18.2424 30.8182 15.8182 32.6364L14 33.8485C13.5455 34.1516 12.9394 34.1516 12.4849 33.8485C12.0303 33.5455 11.7273 33.0909 11.7273 32.4849V31.1212C11.7273 26.1212 14 21.2728 17.7879 18.0909C21.7273 14.9091 26.8788 13.5455 32.0303 14.4546C40.3637 16.1212 46.1212 24 45.3637 32.6364C45.3637 33.2425 44.9091 33.697 44.3031 34C44 34.1516 43.8485 34.1516 43.697 34.1516ZM28.697 17.3334C25.3637 17.3334 22.1818 18.394 19.6061 20.5152C16.8788 22.7879 15.0606 26.1212 14.7576 29.6061C17.9394 27.4849 22.1818 27.1819 25.8182 28.8485C28.0909 29.9091 30.3637 29.7576 32.6364 28.394C36.2728 26.4243 39.7576 27.6364 42.1818 29.1515C41.4243 23.394 37.1818 18.5455 31.4243 17.3334C30.3637 17.4849 29.4546 17.3334 28.697 17.3334ZM28.8485 61.7273H28.5455C24.6061 61.5758 20.9697 59 18.8485 54.4546C18.5455 53.697 18.8485 52.7879 19.6061 52.4849C20.3637 52.1819 21.2727 52.4849 21.5758 53.2425C23.2424 56.7273 25.8182 58.8485 28.697 58.8485C31.4243 59 34 57.1819 35.6667 53.8485L36.1212 53.0909C36.5758 52.3334 37.4849 52.1819 38.2424 52.6364C39 53.0909 39.1515 54 38.697 54.7576L38.394 55.2122C36.1212 59.3031 32.6364 61.7273 28.8485 61.7273Z" fill="#24584F"/>
<path d="M28.3939 90.6667C28.0909 90.6667 27.7878 90.5152 27.4848 90.3637C27.1818 90.2121 27.3333 90.2121 27.3333 90.2121L27.1818 90.0606L10.2121 68.2424C9.75753 67.7879 9.75753 67.0303 10.0606 66.4243L18.8484 52.7879C19.1515 52.3333 19.7575 52.0303 20.3636 52.1818C20.9696 52.3333 21.4242 52.7879 21.5757 53.394L28.3939 82.7879L35.9696 53.394C36.1212 52.7879 36.5757 52.3334 37.1818 52.3334C37.7878 52.1818 38.3939 52.4849 38.6969 53.0909L46.4242 66.7273C46.7272 67.3334 46.7272 67.9394 46.2727 68.394L29.606 90.0606L29.4545 90.2121C29.303 90.3637 29.303 90.3637 29.1515 90.3637C29 90.5152 28.6969 90.6667 28.3939 90.6667ZM13.2424 67.1818L25.3636 82.7879L19.606 57.4849L13.2424 67.1818ZM38.0909 57.7879L31.7272 82.3333L43.3939 67.1818L38.0909 57.7879ZM73.5454 97.4849C60.3636 97.4849 49.606 86.7273 49.606 73.5455C49.606 60.3637 60.3636 49.6061 73.5454 49.6061C86.7272 49.6061 97.4848 60.3637 97.4848 73.5455C97.4848 86.7273 86.7272 97.4849 73.5454 97.4849ZM73.5454 52.6364C62.0303 52.6364 52.6363 62.0303 52.6363 73.5455C52.6363 85.0606 62.0303 94.4546 73.5454 94.4546C85.0606 94.4546 94.4545 85.0606 94.4545 73.5455C94.4545 62.0303 85.0606 52.6364 73.5454 52.6364Z" fill="#24584F"/>
<path d="M73.5455 97.4849C60.3637 97.4849 49.6061 86.7273 49.6061 73.5455C49.6061 60.3637 60.3637 49.6061 73.5455 49.6061C86.7273 49.6061 97.4849 60.3637 97.4849 73.5455C97.4849 86.7273 86.7273 97.4849 73.5455 97.4849ZM73.5455 52.6364C62.0303 52.6364 52.6364 62.0303 52.6364 73.5455C52.6364 85.0606 62.0303 94.4546 73.5455 94.4546C85.0606 94.4546 94.4546 85.0606 94.4546 73.5455C94.4546 62.0303 85.0606 52.6364 73.5455 52.6364Z" fill="#24584F"/>
<path d="M73.5455 84.4545C70.0607 84.4545 67.3334 81.7273 67.3334 78.2424C67.3334 77.3333 67.9394 76.7273 68.8485 76.7273C69.7576 76.7273 70.3637 77.3333 70.3637 78.2424C70.3637 79.9091 71.8788 81.4242 73.5455 81.4242C75.2122 81.4242 76.7273 79.9091 76.7273 78.2424C76.7273 76.5757 75.2122 75.0606 73.5455 75.0606C70.0607 75.0606 67.3334 72.3333 67.3334 68.8485C67.3334 65.3636 70.0607 62.6364 73.5455 62.6364C77.0303 62.6364 79.7576 65.3636 79.7576 68.8485C79.7576 69.7576 79.1516 70.3636 78.2425 70.3636C77.3334 70.3636 76.7273 69.7576 76.7273 68.8485C76.7273 67.1818 75.2122 65.6667 73.5455 65.6667C71.8788 65.6667 70.3637 67.1818 70.3637 68.8485C70.3637 70.5151 71.8788 72.0303 73.5455 72.0303C77.0303 72.0303 79.7576 74.7576 79.7576 78.2424C79.7576 81.7273 77.0303 84.4545 73.5455 84.4545Z" fill="#24584F"/>
<path d="M73.5454 65.6667C72.6363 65.6667 72.0303 65.0606 72.0303 64.1515V61.8788C72.0303 60.9697 72.6363 60.3636 73.5454 60.3636C74.4545 60.3636 75.0606 60.9697 75.0606 61.8788V64.1515C75.0606 65.0606 74.4545 65.6667 73.5454 65.6667ZM73.5454 86.7273C72.6363 86.7273 72.0303 86.1212 72.0303 85.2121V82.9394C72.0303 82.0303 72.6363 81.4243 73.5454 81.4243C74.4545 81.4243 75.0606 82.0303 75.0606 82.9394V85.2121C75.0606 86.1212 74.4545 86.7273 73.5454 86.7273Z" fill="#24584F"/>
</svg>
