<svg width="616" height="616" viewBox="0 0 616 616" fill="none" xmlns="http://www.w3.org/2000/svg">
<g clip-path="url(#clip0_114_63)">
<path d="M531.249 341.418C541.284 351.454 541.284 367.701 531.249 377.711C521.213 387.721 504.966 387.746 494.956 377.711C484.946 367.675 484.92 351.428 494.956 341.418C504.992 331.382 521.239 331.382 531.249 341.418ZM616 385C616 455.763 558.43 513.333 487.667 513.333C477.015 513.333 466.209 511.768 454.813 508.585L373.732 589.666C356.767 606.632 334.206 615.974 310.207 615.974H282.333C268.191 615.974 256.667 604.476 256.667 590.308V551.808C256.667 537.665 268.165 526.141 282.333 526.141H308V500.474C308 486.332 319.524 474.808 333.667 474.808H346.346L346.115 457.56C345.961 444.598 350.863 432.355 359.872 423.064L364.261 418.572C360.95 406.945 359.333 395.883 359.333 384.949C359.333 314.186 416.904 256.615 487.667 256.615C558.43 256.615 616 314.186 616 384.949V385ZM590.333 385C590.333 328.379 544.287 282.333 487.667 282.333C431.046 282.333 385 328.379 385 385C385 395.421 386.951 406.201 390.929 417.956C392.495 422.525 391.34 427.581 387.977 431.046L378.25 441.03C373.989 445.394 371.705 451.169 371.782 457.277L372.167 487.513C372.398 494.468 366.289 500.654 359.333 500.5H333.667V539C333.667 546.084 327.917 551.833 320.833 551.833H282.333V590.333H310.233C327.378 590.333 343.471 583.66 355.612 571.545L442.16 484.997C445.599 481.558 450.707 480.352 455.301 481.892C466.928 485.767 477.503 487.667 487.692 487.667C544.313 487.667 590.333 441.621 590.333 385ZM192.5 590.333H115.5C65.9633 590.333 25.6667 550.037 25.6667 500.5V245.399C25.6667 215.497 40.4763 187.649 65.2447 170.94L257.745 41.041C288.262 20.4306 327.738 20.4306 358.23 41.041L550.73 170.94C575.524 187.675 590.308 215.497 590.308 245.399C590.308 252.483 596.057 258.232 603.141 258.232C610.225 258.232 615.974 252.483 615.974 245.399C615.974 206.95 596.955 171.145 565.077 149.662L372.603 19.7633C333.359 -6.69902 282.667 -6.69902 243.397 19.7633L50.897 149.662C19.019 171.171 0 206.95 0 245.399V500.5C0 564.179 51.821 616 115.5 616H192.5C199.584 616 205.333 610.251 205.333 603.167C205.333 596.083 199.584 590.333 192.5 590.333Z" fill="black" fill-opacity="0.1"/>
</g>
<defs>
<clipPath id="clip0_114_63">
<rect width="616" height="616" fill="white"/>
</clipPath>
</defs>
</svg>
