<svg width="48" height="48" viewBox="0 0 48 48" fill="none" xmlns="http://www.w3.org/2000/svg">
<circle cx="23.9993" cy="23.9993" r="20" fill="#C13584"/>
<path d="M24.0012 14.1614C27.2053 14.1614 27.5849 14.1737 28.8502 14.2314C30.0202 14.2847 30.6556 14.4802 31.0785 14.6446C31.6386 14.8623 32.0383 15.1223 32.4582 15.5422C32.8782 15.9621 33.1382 16.3619 33.3559 16.922C33.5202 17.3448 33.7157 17.9802 33.7691 19.1502C33.8268 20.4156 33.8391 20.7951 33.8391 23.9992C33.8391 27.2033 33.8268 27.5829 33.7691 28.8482C33.7157 30.0182 33.5202 30.6536 33.3559 31.0765C33.1382 31.6366 32.8782 32.0363 32.4583 32.4562C32.0383 32.8762 31.6386 33.1362 31.0785 33.3539C30.6556 33.5182 30.0202 33.7137 28.8502 33.7671C27.5851 33.8248 27.2056 33.837 24.0012 33.837C20.7969 33.837 20.4174 33.8248 19.1522 33.7671C17.9822 33.7137 17.3468 33.5182 16.924 33.3539C16.3638 33.1362 15.9641 32.8762 15.5442 32.4562C15.1243 32.0363 14.8642 31.6366 14.6465 31.0765C14.4822 30.6536 14.2867 30.0182 14.2334 28.8482C14.1756 27.5829 14.1634 27.2033 14.1634 23.9992C14.1634 20.7951 14.1756 20.4156 14.2334 19.1502C14.2867 17.9802 14.4822 17.3448 14.6465 16.922C14.8642 16.3619 15.1243 15.9621 15.5442 15.5422C15.9641 15.1223 16.3638 14.8623 16.924 14.6446C17.3468 14.4802 17.9822 14.2847 19.1522 14.2314C20.4175 14.1737 20.7971 14.1614 24.0012 14.1614ZM24.0012 11.9993C20.7422 11.9993 20.3336 12.0131 19.0536 12.0715C17.7764 12.1297 16.9041 12.3326 16.1408 12.6292C15.3517 12.9359 14.6824 13.3462 14.0153 14.0133C13.3482 14.6805 12.9378 15.3497 12.6312 16.1388C12.3346 16.9021 12.1317 17.7744 12.0734 19.0517C12.015 20.3316 12.0012 20.7402 12.0012 23.9992C12.0012 27.2582 12.015 27.6669 12.0734 28.9468C12.1317 30.2241 12.3346 31.0964 12.6312 31.8597C12.9378 32.6488 13.3482 33.318 14.0153 33.9851C14.6824 34.6522 15.3517 35.0626 16.1408 35.3692C16.9041 35.6658 17.7764 35.8687 19.0536 35.927C20.3336 35.9854 20.7422 35.9992 24.0012 35.9992C27.2602 35.9992 27.6689 35.9854 28.9488 35.927C30.2261 35.8687 31.0984 35.6658 31.8617 35.3692C32.6508 35.0626 33.32 34.6522 33.9872 33.9851C34.6543 33.318 35.0646 32.6488 35.3713 31.8597C35.6679 31.0964 35.8707 30.2241 35.929 28.9468C35.9874 27.6669 36.0012 27.2582 36.0012 23.9992C36.0012 20.7402 35.9874 20.3316 35.929 19.0517C35.8707 17.7744 35.6679 16.9021 35.3713 16.1388C35.0646 15.3497 34.6543 14.6805 33.9872 14.0133C33.32 13.3462 32.6508 12.9359 31.8617 12.6292C31.0984 12.3326 30.2261 12.1297 28.9488 12.0715C27.6689 12.0131 27.2602 11.9993 24.0012 11.9993Z" fill="white"/>
<path d="M24.0076 17.8423C20.6043 17.8423 17.8455 20.6011 17.8455 24.0044C17.8455 27.4077 20.6043 30.1666 24.0076 30.1666C27.4109 30.1666 30.1698 27.4077 30.1698 24.0044C30.1698 20.6011 27.4109 17.8423 24.0076 17.8423ZM24.0076 28.0044C21.7985 28.0044 20.0076 26.2136 20.0076 24.0044C20.0076 21.7953 21.7985 20.0044 24.0076 20.0044C26.2168 20.0044 28.0076 21.7953 28.0076 24.0044C28.0076 26.2136 26.2168 28.0044 24.0076 28.0044Z" fill="white"/>
<path d="M31.8495 17.5958C31.8495 18.391 31.2048 19.0358 30.4095 19.0358C29.6142 19.0358 28.9695 18.391 28.9695 17.5958C28.9695 16.8005 29.6142 16.1558 30.4095 16.1558C31.2048 16.1558 31.8495 16.8005 31.8495 17.5958Z" fill="white"/>
</svg>
