<svg width="48" height="48" viewBox="0 0 48 48" fill="none" xmlns="http://www.w3.org/2000/svg">
<circle cx="23.9998" cy="23.9993" r="20" fill="#0077B5"/>
<path fill-rule="evenodd" clip-rule="evenodd" d="M18.773 14.2827C18.773 15.5278 17.825 16.5354 16.3424 16.5354C14.9176 16.5354 13.9696 15.5278 13.999 14.2827C13.9696 12.9771 14.9176 11.9988 16.3708 11.9988C17.825 11.9988 18.7446 12.9771 18.773 14.2827ZM14.1181 32.8178V18.315H18.6254V32.8169H14.1181V32.8178Z" fill="white"/>
<path fill-rule="evenodd" clip-rule="evenodd" d="M22.2391 22.9441C22.2391 21.1352 22.1795 19.593 22.1199 18.3177H26.0349L26.243 20.3045H26.3319C26.9251 19.3849 28.4077 17.9922 30.8099 17.9922C33.775 17.9922 35.9993 19.9497 35.9993 24.2186V32.8205H31.492V24.7833C31.492 22.9139 30.8401 21.6394 29.209 21.6394C27.963 21.6394 27.2222 22.4995 26.9261 23.3292C26.8069 23.6263 26.7482 24.0407 26.7482 24.4569V32.8205H22.2409V22.9441H22.2391Z" fill="white"/>
</svg>
