<svg width="129" height="70" viewBox="0 0 129 70" fill="none" xmlns="http://www.w3.org/2000/svg">
<path d="M74.5058 41.8052V49.1582C74.9581 49.1582 117.376 38.5827 117.376 38.5827C118.967 38.191 119.453 37.8172 119.453 36.9626V29.307C119.453 30.2684 118.163 30.9983 116.806 31.3366L74.489 41.8052H74.5058Z" fill="#4CA785"/>
<path d="M74.5058 52.5409V59.8938C74.9581 59.8938 117.376 49.3184 117.376 49.3184C118.967 48.9267 119.453 48.5528 119.453 47.6983V40.0426C119.453 41.004 118.163 41.734 116.806 42.0723L74.489 52.5409H74.5058Z" fill="#24584F"/>
<path d="M77.1863 27.402L80.386 28.1675C84.7752 27.0815 90.1025 25.764 96.1 24.2863L74.5059 19.0876V25.586C74.5059 26.5296 75.2262 26.9391 77.1863 27.402Z" fill="#C6C7C8"/>
<path d="M103.655 22.4347L77.1863 16.0609C75.2262 15.5981 74.5059 15.1886 74.5059 14.245V7.74659L117.979 18.2152C117.527 18.7671 116.655 19.2122 115.734 19.4437L103.655 22.4347Z" fill="#C6C7C8"/>
<path d="M73.9529 31.1407L67.7712 40.1139C68.3911 39.9714 117.392 27.8114 117.392 27.8114C118.984 27.4198 119.47 27.0459 119.47 26.1913V18.5357C119.47 19.4971 118.18 20.227 116.823 20.5653L73.9529 31.1764V31.1407Z" fill="#6EBEBD"/>
<path d="M15.2352 21.8472V29.2001C15.2352 29.7343 15.1682 30.0903 15.0007 30.2862C14.8331 30.482 14.6154 30.5888 14.2971 30.5888C13.9788 30.5888 13.6605 30.482 13.2751 30.2862V32.3514C13.9955 32.6185 14.6154 32.7431 15.1012 32.7431C15.587 32.7431 16.1398 32.6185 16.5419 32.3514C16.944 32.0843 17.2288 31.7105 17.413 31.2298C17.5973 30.7491 17.6978 30.0013 17.6978 29.0221V21.2597L15.252 21.865L15.2352 21.8472Z" fill="#54565B"/>
<path d="M23.2093 17.9303L20.7634 18.5357V25.8174C20.7634 26.8144 20.8639 27.5444 21.0482 28.0251C21.2325 28.5058 21.5173 28.8975 21.9194 29.1467C22.3214 29.4138 22.7905 29.5384 23.3266 29.5384H50.2983C50.7841 29.5028 51.2197 29.3782 51.5882 29.1467C51.9903 28.8797 52.2751 28.5058 52.4593 28.0251C52.6436 27.5444 52.7441 26.7966 52.7441 25.8174V21.9006L50.2983 22.5059V25.4613C50.2983 25.9777 50.2313 26.3515 50.0637 26.5474C49.9297 26.7254 49.7454 26.8144 49.4941 26.8322H45.105L45.0714 26.0667C45.0714 25.3901 44.9542 24.7314 44.7196 24.0014C44.4851 23.2715 44.083 22.6484 43.547 22.0964C42.9941 21.5623 42.2905 21.135 41.4026 20.8324C40.5147 20.5297 39.4426 20.3695 38.1694 20.3695C36.8962 20.3695 37.2647 20.3695 36.9464 20.3873C36.6281 20.4051 36.8962 20.4407 36.6281 20.4585L36.4104 22.951C36.6616 22.9154 36.9799 22.8976 37.3318 22.8798C37.6836 22.862 38.0856 22.862 38.5044 22.862C39.2583 22.862 39.9117 22.9332 40.431 23.0756C40.9503 23.2181 41.3859 23.4495 41.7209 23.77C42.056 24.0905 42.2905 24.4999 42.4413 25.0163C42.5753 25.497 42.6591 26.1023 42.6591 26.8144H24.0469C23.7956 26.7966 23.6114 26.7076 23.4773 26.5296C23.3098 26.3337 23.2428 25.9777 23.2428 25.4435V17.9125L23.2093 17.9303Z" fill="#54565B"/>
<path d="M57.3176 31.9953C57.4851 31.9953 57.6694 32.0665 57.8369 32.1378C58.0212 32.2446 58.1552 32.3158 58.2725 32.3692V31.1229C58.0882 31.0161 57.8704 30.9271 57.7197 30.8559C57.5354 30.7847 57.3679 30.7491 57.1668 30.7491C56.9658 30.7491 56.7145 30.7847 56.5135 30.8559C56.2957 30.9271 56.1114 31.0339 55.9607 31.1586C55.8266 31.2654 55.7094 31.4612 55.6088 31.6749C55.5083 31.9063 55.4748 32.1556 55.4748 32.476C55.4748 32.7965 55.4748 32.6541 55.5083 32.7787C55.5418 32.8855 55.5753 33.0101 55.6088 33.0814H54.855V34.1852H58.239V33.0458H56.8318C56.7648 32.9745 56.7313 32.8677 56.6978 32.7431C56.6643 32.6007 56.6643 32.5472 56.6643 32.476C56.6643 32.2802 56.7313 32.1378 56.8485 32.0487C56.9826 31.9775 57.1501 31.9775 57.3009 31.9775L57.3176 31.9953Z" fill="#54565B"/>
<path d="M47.132 31.2298C46.7635 31.2298 46.4452 31.3722 46.1604 31.6571C45.8756 31.9419 45.7583 32.298 45.7583 32.7253C45.7583 33.1526 45.8923 33.4552 46.1604 33.7579C46.4117 34.0606 46.7635 34.1852 47.132 34.1852C47.5006 34.1852 47.8524 34.0072 48.1037 33.7579C48.3885 33.4552 48.5057 33.117 48.5057 32.7253C48.5057 32.3336 48.3717 31.9597 48.1037 31.6571C47.8189 31.3544 47.5006 31.2298 47.132 31.2298Z" fill="#54565B"/>
<path d="M50.6166 31.2298C50.2481 31.2298 49.9298 31.3722 49.645 31.6571C49.3602 31.9419 49.2429 32.298 49.2429 32.7253C49.2429 33.1526 49.3769 33.4552 49.645 33.7579C49.8963 34.0606 50.2481 34.1852 50.6166 34.1852C50.9852 34.1852 51.3035 34.0072 51.5883 33.7579C51.8731 33.4552 51.9904 33.117 51.9904 32.7253C51.9904 32.3336 51.8563 31.9597 51.5883 31.6571C51.3035 31.3544 50.9852 31.2298 50.6166 31.2298Z" fill="#54565B"/>
<path d="M38.6552 31.2298C38.2867 31.2298 37.9683 31.3722 37.6836 31.6571C37.3988 31.9419 37.2815 32.298 37.2815 32.7253C37.2815 33.1526 37.4155 33.4552 37.6836 33.7579C37.9348 34.0606 38.2867 34.1852 38.6552 34.1852C39.0238 34.1852 39.3756 34.0072 39.6269 33.7579C39.9117 33.4552 40.0289 33.117 40.0289 32.7253C40.0289 32.3336 39.8949 31.9597 39.6269 31.6571C39.3421 31.3544 39.0238 31.2298 38.6552 31.2298Z" fill="#54565B"/>
<path d="M55.7932 17.9303V29.5384H58.2558V17.325L55.7932 17.9303Z" fill="#54565B"/>
<path d="M15.1513 50.2264H21.2493V47.8229H15.7042V45.8111H20.6294V43.4075H15.7042V41.2355H21.2493V38.8676H15.1513C14.0959 38.8676 13.2583 39.7578 13.2583 40.8794V48.1968C13.2583 49.3184 14.0959 50.2264 15.1513 50.2264Z" fill="#54565B"/>
<path d="M57.8537 49.7991C57.0831 48.6775 56.2957 47.5558 55.5084 46.4342C56.0612 46.1315 56.5135 45.722 56.8653 45.1701C57.2674 44.5292 57.4852 43.7458 57.4852 42.8734C57.4852 42.0011 57.3846 41.7518 57.2004 41.2711C57.0161 40.7904 56.7648 40.3453 56.4298 40.007C56.0947 39.6688 55.7094 39.3661 55.2403 39.1702C54.788 38.9744 54.2687 38.8676 53.7158 38.8676H50.2648C49.4774 38.8676 48.8408 39.5441 48.8408 40.3809V50.2086H51.2867V46.7725H52.8279C53.1965 47.3244 53.5483 47.8763 53.9169 48.4104C54.3022 48.9801 54.7042 49.5498 55.1063 50.1196L55.1733 50.2264H58.1218L57.837 49.8169L57.8537 49.7991ZM51.2867 41.2533H53.6991C53.9839 41.2533 54.2184 41.3067 54.3859 41.4135C54.5535 41.5203 54.6875 41.6628 54.788 41.823C54.8885 42.001 54.9555 42.1791 54.9723 42.3571C55.0058 42.553 55.0225 42.731 55.0225 42.8734C55.0225 43.1405 54.9723 43.3719 54.9053 43.55C54.8215 43.7458 54.721 43.9061 54.587 44.0307C54.4529 44.1553 54.3357 44.2443 54.1682 44.3155C54.0006 44.3868 53.8498 44.4046 53.7158 44.4046H51.2867V41.2533Z" fill="#54565B"/>
<path d="M29.5251 39.4195V45.8111C29.5251 46.0069 29.5084 46.2384 29.4581 46.4876C29.4246 46.7191 29.3408 46.9505 29.2403 47.1641C29.1398 47.3778 28.9723 47.5558 28.7712 47.6983C28.587 47.8407 28.3022 47.8941 27.9504 47.8941C27.5986 47.8941 27.5818 47.8585 27.431 47.8051C27.2803 47.7339 27.1462 47.6626 27.0457 47.5736C26.9452 47.4846 26.8447 47.3778 26.7609 47.2354C26.6772 47.0929 26.6102 46.9861 26.5767 46.8615L26.4761 46.6122L24.248 47.6626L24.3486 47.8941C24.6669 48.6241 25.1359 49.2294 25.7558 49.6389C26.3756 50.0662 27.1127 50.2798 27.9504 50.2798C28.788 50.2798 29.0895 50.173 29.5921 49.9593C30.078 49.7457 30.5135 49.443 30.8653 49.0335C31.2171 48.6419 31.5019 48.1612 31.6862 47.6092C31.8705 47.0573 31.971 46.452 31.971 45.7933V38.7964L29.5084 39.4017L29.5251 39.4195Z" fill="#54565B"/>
<path d="M40.4143 39.1524C40.3473 38.9922 40.1965 38.8854 40.0457 38.8854C39.895 38.8854 39.7274 38.9922 39.6772 39.1524L34.3499 50.2264H37.0303L37.8176 48.535H42.2906L43.078 50.2264H45.7584L40.4311 39.1524H40.4143ZM38.9736 46.1849L40.029 43.817L41.0844 46.1849H38.9736Z" fill="#54565B"/>
</svg>
