<svg width="100" height="100" viewBox="0 0 100 100" fill="none" xmlns="http://www.w3.org/2000/svg">
<path d="M48.0972 27.4678H35.371C35.0602 27.4678 34.7622 27.5913 34.5424 27.8111C34.3226 28.0308 34.1992 28.3289 34.1992 28.6397C34.1992 28.9505 34.3226 29.2486 34.5424 29.4683C34.7622 29.6881 35.0602 29.8116 35.371 29.8116H48.098C48.4088 29.8116 48.7069 29.6881 48.9266 29.4683C49.1464 29.2486 49.2699 28.9505 49.2699 28.6397C49.2699 28.3289 49.1464 28.0308 48.9266 27.8111C48.7069 27.5913 48.4088 27.4678 48.098 27.4678H48.0972ZM66.007 38.6829H57.8011C57.4903 38.6829 57.1923 38.8063 56.9725 39.0261C56.7527 39.2459 56.6292 39.5439 56.6292 39.8547C56.6292 40.1655 56.7527 40.4636 56.9725 40.6834C57.1923 40.9031 57.4903 41.0266 57.8011 41.0266H66.007C66.3178 41.0266 66.6159 40.9031 66.8356 40.6834C67.0554 40.4636 67.1789 40.1655 67.1789 39.8547C67.1789 39.5439 67.0554 39.2459 66.8356 39.0261C66.6159 38.8063 66.3178 38.6829 66.007 38.6829ZM48.0972 34.153H35.371C35.0602 34.153 34.7622 34.2764 34.5424 34.4962C34.3226 34.716 34.1992 35.0141 34.1992 35.3249C34.1992 35.6357 34.3226 35.9337 34.5424 36.1535C34.7622 36.3733 35.0602 36.4967 35.371 36.4967H48.098C48.4088 36.4967 48.7069 36.3733 48.9266 36.1535C49.1464 35.9337 49.2699 35.6357 49.2699 35.3249C49.2699 35.0141 49.1464 34.716 48.9266 34.4962C48.7069 34.2764 48.4088 34.153 48.098 34.153H48.0972ZM48.0972 40.8385H35.371C35.0602 40.8385 34.7622 40.962 34.5424 41.1818C34.3226 41.4015 34.1992 41.6996 34.1992 42.0104C34.1992 42.3212 34.3226 42.6193 34.5424 42.839C34.7622 43.0588 35.0602 43.1823 35.371 43.1823H48.098C48.4088 43.1823 48.7069 43.0588 48.9266 42.839C49.1464 42.6193 49.2699 42.3212 49.2699 42.0104C49.2699 41.6996 49.1464 41.4015 48.9266 41.1818C48.7069 40.962 48.4088 40.8385 48.098 40.8385H48.0972ZM48.0972 47.5237H35.371C35.0602 47.5237 34.7622 47.6472 34.5424 47.8669C34.3226 48.0867 34.1992 48.3848 34.1992 48.6956C34.1992 49.0064 34.3226 49.3044 34.5424 49.5242C34.7622 49.744 35.0602 49.8674 35.371 49.8674H48.098C48.4088 49.8674 48.7069 49.744 48.9266 49.5242C49.1464 49.3044 49.2699 49.0064 49.2699 48.6956C49.2699 48.3848 49.1464 48.0867 48.9266 47.8669C48.7069 47.6472 48.4088 47.5237 48.098 47.5237H48.0972ZM48.0972 54.209H35.371C35.0602 54.209 34.7622 54.3325 34.5424 54.5523C34.3226 54.772 34.1992 55.0701 34.1992 55.3809C34.1992 55.6917 34.3226 55.9898 34.5424 56.2095C34.7622 56.4293 35.0602 56.5528 35.371 56.5528H48.098C48.4088 56.5528 48.7069 56.4293 48.9266 56.2095C49.1464 55.9898 49.2699 55.6917 49.2699 55.3809C49.2699 55.0701 49.1464 54.772 48.9266 54.5523C48.7069 54.3325 48.4088 54.209 48.098 54.209H48.0972ZM66.007 45.2333H57.8011C57.4903 45.2333 57.1923 45.3567 56.9725 45.5765C56.7527 45.7963 56.6292 46.0943 56.6292 46.4051C56.6292 46.7159 56.7527 47.014 56.9725 47.2338C57.1923 47.4535 57.4903 47.577 57.8011 47.577H66.007C66.3178 47.577 66.6159 47.4535 66.8356 47.2338C67.0554 47.014 67.1789 46.7159 67.1789 46.4051C67.1789 46.0943 67.0554 45.7963 66.8356 45.5765C66.6159 45.3567 66.3178 45.2333 66.007 45.2333ZM66.007 51.7838H57.8011C57.4903 51.7838 57.1923 51.9073 56.9725 52.1271C56.7527 52.3468 56.6292 52.6449 56.6292 52.9557C56.6292 53.2665 56.7527 53.5646 56.9725 53.7844C57.1923 54.0041 57.4903 54.1276 57.8011 54.1276H66.007C66.3178 54.1276 66.6159 54.0041 66.8356 53.7844C67.0554 53.5646 67.1789 53.2665 67.1789 52.9557C67.1789 52.6449 67.0554 52.3468 66.8356 52.1271C66.6159 51.9073 66.3178 51.7838 66.007 51.7838ZM57.8011 34.476H62.2785C62.5893 34.476 62.8873 34.3526 63.1071 34.1328C63.3269 33.913 63.4503 33.615 63.4503 33.3042C63.4503 32.9934 63.3269 32.6953 63.1071 32.4755C62.8873 32.2557 62.5893 32.1323 62.2785 32.1323H57.8011C57.4903 32.1323 57.1923 32.2557 56.9725 32.4755C56.7527 32.6953 56.6292 32.9934 56.6292 33.3042C56.6292 33.615 56.7527 33.913 56.9725 34.1328C57.1923 34.3526 57.4903 34.476 57.8011 34.476ZM57.8011 27.9256H58.5499C58.8608 27.9256 59.1588 27.8022 59.3786 27.5824C59.5984 27.3626 59.7218 27.0646 59.7218 26.7538C59.7218 26.443 59.5984 26.1449 59.3786 25.9251C59.1588 25.7054 58.8608 25.5819 58.5499 25.5819H57.8011C57.4903 25.5819 57.1923 25.7054 56.9725 25.9251C56.7527 26.1449 56.6292 26.443 56.6292 26.7538C56.6292 27.0646 56.7527 27.3626 56.9725 27.5824C57.1923 27.8022 57.4903 27.9256 57.8011 27.9256ZM48.0972 20.7825H35.371C35.0602 20.7825 34.7622 20.9059 34.5424 21.1257C34.3226 21.3455 34.1992 21.6435 34.1992 21.9543C34.1992 22.2651 34.3226 22.5632 34.5424 22.783C34.7622 23.0028 35.0602 23.1262 35.371 23.1262H48.098C48.4088 23.1262 48.7069 23.0028 48.9266 22.783C49.1464 22.5632 49.2699 22.2651 49.2699 21.9543C49.2699 21.6435 49.1464 21.3455 48.9266 21.1257C48.7069 20.9059 48.4088 20.7825 48.098 20.7825H48.0972ZM74.3554 58.02H78.2709C78.5816 58.02 78.8797 57.8965 79.0995 57.6767C79.3193 57.457 79.4427 57.1589 79.4427 56.8481C79.4427 56.5373 79.3193 56.2392 79.0995 56.0195C78.8797 55.7997 78.5816 55.6762 78.2709 55.6762H74.3554C74.0446 55.6762 73.7465 55.7997 73.5268 56.0195C73.307 56.2392 73.1835 56.5373 73.1835 56.8481C73.1835 57.1589 73.307 57.457 73.5268 57.6767C73.7465 57.8965 74.0446 58.02 74.3554 58.02ZM74.3554 53.5997H78.2709C78.5816 53.5997 78.8797 53.4762 79.0995 53.2564C79.3193 53.0367 79.4427 52.7386 79.4427 52.4278C79.4427 52.117 79.3193 51.8189 79.0995 51.5991C78.8797 51.3794 78.5816 51.2559 78.2709 51.2559H74.3554C74.0446 51.2559 73.7465 51.3794 73.5268 51.5991C73.307 51.8189 73.1835 52.117 73.1835 52.4278C73.1835 52.7386 73.307 53.0367 73.5268 53.2564C73.7465 53.4762 74.0446 53.5997 74.3554 53.5997ZM74.3554 49.1797H78.2709C78.5816 49.1797 78.8797 49.0563 79.0995 48.8365C79.3193 48.6167 79.4427 48.3187 79.4427 48.0079C79.4427 47.6971 79.3193 47.399 79.0995 47.1792C78.8797 46.9595 78.5816 46.836 78.2709 46.836H74.3554C74.0446 46.836 73.7465 46.9595 73.5268 47.1792C73.307 47.399 73.1835 47.6971 73.1835 48.0079C73.1835 48.3187 73.307 48.6167 73.5268 48.8365C73.7465 49.0563 74.0446 49.1797 74.3554 49.1797ZM25.2808 40.1735H18.3621C18.0513 40.1735 17.7532 40.297 17.5334 40.5167C17.3137 40.7365 17.1902 41.0346 17.1902 41.3454C17.1902 41.6562 17.3137 41.9542 17.5334 42.174C17.7532 42.3938 18.0513 42.5172 18.3621 42.5172H25.2808C25.5916 42.5172 25.8897 42.3938 26.1095 42.174C26.3292 41.9542 26.4527 41.6562 26.4527 41.3454C26.4527 41.0346 26.3292 40.7365 26.1095 40.5167C25.8897 40.297 25.5916 40.1735 25.2808 40.1735ZM25.2808 44.6579H18.3621C18.0513 44.6579 17.7532 44.7813 17.5334 45.0011C17.3137 45.2209 17.1902 45.5189 17.1902 45.8297C17.1902 46.1405 17.3137 46.4386 17.5334 46.6584C17.7532 46.8782 18.0513 47.0016 18.3621 47.0016H25.2808C25.5916 47.0016 25.8897 46.8782 26.1095 46.6584C26.3292 46.4386 26.4527 46.1405 26.4527 45.8297C26.4527 45.5189 26.3292 45.2209 26.1095 45.0011C25.8897 44.7813 25.5916 44.6579 25.2808 44.6579ZM25.2808 53.6264H18.3621C18.0513 53.6264 17.7532 53.7499 17.5334 53.9697C17.3137 54.1894 17.1902 54.4875 17.1902 54.7983C17.1902 55.1091 17.3137 55.4072 17.5334 55.6269C17.7532 55.8467 18.0513 55.9702 18.3621 55.9702H25.2808C25.5916 55.9702 25.8897 55.8467 26.1095 55.6269C26.3292 55.4072 26.4527 55.1091 26.4527 54.7983C26.4527 54.4875 26.3292 54.1894 26.1095 53.9697C25.8897 53.7499 25.5916 53.6264 25.2808 53.6264ZM25.2808 49.142H18.3621C18.2082 49.142 18.0558 49.1724 17.9136 49.2312C17.7714 49.2901 17.6422 49.3765 17.5334 49.4853C17.4246 49.5941 17.3383 49.7233 17.2794 49.8655C17.2205 50.0076 17.1902 50.16 17.1902 50.3139C17.1902 50.4678 17.2205 50.6202 17.2794 50.7624C17.3383 50.9046 17.4246 51.0337 17.5334 51.1426C17.6422 51.2514 17.7714 51.3377 17.9136 51.3966C18.0558 51.4555 18.2082 51.4858 18.3621 51.4858H25.2808C25.5916 51.4858 25.8897 51.3623 26.1095 51.1426C26.3292 50.9228 26.4527 50.6247 26.4527 50.3139C26.4527 50.0031 26.3292 49.705 26.1095 49.4853C25.8897 49.2655 25.5916 49.142 25.2808 49.142Z" fill="#24584F"/>
<path d="M13.7388 62.2615H82.7122C83.023 62.2615 83.3211 62.1381 83.5408 61.9183C83.7606 61.6985 83.8841 61.4004 83.8841 61.0896V42.8182C83.8841 42.5074 83.7606 42.2093 83.5408 41.9895C83.3211 41.7698 83.023 41.6463 82.7122 41.6463H80.7274V39.7301C80.7274 39.4193 80.604 39.1212 80.3842 38.9014C80.1644 38.6817 79.8664 38.5582 79.5556 38.5582H77.6964V36.302C77.6964 35.9912 77.5729 35.6931 77.3531 35.4733C77.1334 35.2535 76.8353 35.1301 76.5245 35.1301C76.2137 35.1301 75.9156 35.2535 75.6959 35.4733C75.4761 35.6931 75.3526 35.9912 75.3526 36.302V38.5582H73.4933C73.1825 38.5582 72.8844 38.6817 72.6646 38.9014C72.4449 39.1212 72.3214 39.4193 72.3214 39.7301V41.6463H71.5085V33.7572C73.4512 33.5489 75.3031 32.8262 76.8734 31.6635C78.4436 30.5008 79.6753 28.9403 80.4414 27.143C81.2075 25.3456 81.4802 23.3764 81.2315 21.4385C80.9829 19.5005 80.2217 17.664 79.0266 16.1183C77.8316 14.5726 76.2458 13.3737 74.4329 12.6451C72.62 11.9166 70.6455 11.6849 68.7132 11.9738C66.7808 12.2627 64.9606 13.0619 63.4401 14.2889C61.9195 15.5159 60.7538 17.1262 60.0632 18.9539H54.9413V14.441C54.9413 14.1302 54.8178 13.8321 54.5981 13.6124C54.3783 13.3926 54.0802 13.2691 53.7694 13.2691H51.5499V7.83574C51.5499 7.52494 51.4264 7.22687 51.2067 7.0071C50.9869 6.78733 50.6888 6.66387 50.378 6.66387H42.661V3.125C42.661 2.8142 42.5376 2.51613 42.3178 2.29636C42.098 2.07659 41.8 1.95312 41.4892 1.95312C41.1784 1.95312 40.8803 2.07659 40.6605 2.29636C40.4407 2.51613 40.3173 2.8142 40.3173 3.125V6.66387H33.0894C32.7786 6.66387 32.4805 6.78733 32.2607 7.0071C32.0409 7.22687 31.9175 7.52494 31.9175 7.83574V13.2691H29.6985C29.3877 13.2691 29.0897 13.3926 28.8699 13.6124C28.6501 13.8321 28.5267 14.1302 28.5267 14.441V28.2543L26.0683 29.4641V26.9693C26.0683 26.6585 25.9448 26.3605 25.725 26.1407C25.5053 25.9209 25.2072 25.7975 24.8964 25.7975H22.8042V24.8318C22.8042 24.521 22.6807 24.223 22.461 24.0032C22.2412 23.7834 21.9431 23.66 21.6323 23.66C21.3215 23.66 21.0235 23.7834 20.8037 24.0032C20.5839 24.223 20.4604 24.521 20.4604 24.8318V25.7975H17.9776C17.6668 25.7975 17.3688 25.9209 17.149 26.1407C16.9292 26.3605 16.8058 26.6585 16.8058 26.9693V34.0221L13.2212 35.7859C13.0248 35.8826 12.8595 36.0323 12.7438 36.2181C12.6282 36.404 12.5669 36.6184 12.5669 36.8373V61.0896C12.5669 61.4004 12.6904 61.6985 12.9101 61.9183C13.1299 62.1381 13.428 62.2615 13.7388 62.2615ZM74.6651 40.902H78.3837V41.6463H74.6651V40.902ZM81.5401 43.99V59.9178H71.5085V43.99H81.5401ZM70.3366 14.1969C72.0457 14.1967 73.7164 14.7033 75.1375 15.6527C76.5587 16.6021 77.6663 17.9516 78.3205 19.5305C78.9746 21.1094 79.1458 22.8469 78.8124 24.5231C78.4791 26.1994 77.6561 27.7391 76.4476 28.9476C75.2392 30.1561 73.6994 30.9791 72.0232 31.3125C70.347 31.6459 68.6095 31.4747 67.0306 30.8206C65.4516 30.1665 64.1021 29.0589 63.1527 27.6378C62.2033 26.2167 61.6966 24.546 61.6968 22.8369C61.6994 20.5463 62.6105 18.3502 64.2302 16.7304C65.8499 15.1107 68.046 14.1995 70.3366 14.1969ZM54.9413 21.2977H59.4636C59.391 21.8075 59.3543 22.3219 59.3536 22.8369C59.3469 25.2038 60.1112 27.5085 61.531 29.4023C62.4382 30.6113 63.5838 31.6213 64.8969 32.3698C66.2101 33.1183 67.6628 33.5895 69.1653 33.7541V59.9178H54.9413V21.2977ZM34.2612 9.00762H49.2062V13.2691H34.2612V9.00762ZM30.8704 15.6129H52.5976V59.9178H30.8704V15.6129ZM19.1495 28.1412H23.7245V30.6174L19.1495 32.8687V28.1412ZM14.9112 37.5668L28.5272 30.8666V59.9178H14.9106L14.9112 37.5668Z" fill="#24584F"/>
<path d="M70.3535 26.2541H70.3195C70.0178 26.2495 69.73 26.1265 69.5181 25.9116C69.3062 25.6968 69.1872 25.4073 69.1867 25.1055C69.1867 24.7947 69.0632 24.4966 68.8435 24.2769C68.6237 24.0571 68.3256 23.9336 68.0148 23.9336C67.704 23.9336 67.406 24.0571 67.1862 24.2769C66.9664 24.4966 66.843 24.7947 66.843 25.1055C66.8442 25.8257 67.0679 26.528 67.4835 27.1163C67.899 27.7046 68.4861 28.1502 69.1644 28.3922V28.8086C69.1644 29.1194 69.2879 29.4175 69.5077 29.6373C69.7275 29.857 70.0255 29.9805 70.3363 29.9805C70.6471 29.9805 70.9452 29.857 71.165 29.6373C71.3847 29.4175 71.5082 29.1194 71.5082 28.8086V28.3928C72.2839 28.1171 72.9372 27.5762 73.3527 26.8655C73.7682 26.1548 73.9192 25.3202 73.779 24.509C73.6388 23.6978 73.2164 22.9623 72.5865 22.4323C71.9565 21.9023 71.1595 21.612 70.3363 21.6127C70.109 21.6127 69.8868 21.5452 69.6978 21.4189C69.5088 21.2926 69.3615 21.1131 69.2745 20.903C69.1876 20.693 69.1648 20.4619 69.2092 20.2389C69.2536 20.016 69.3631 19.8112 69.5238 19.6505C69.6846 19.4897 69.8894 19.3803 70.1124 19.336C70.3353 19.2916 70.5664 19.3144 70.7764 19.4014C70.9864 19.4884 71.1659 19.6357 71.2922 19.8247C71.4185 20.0138 71.4859 20.236 71.4859 20.4633C71.4859 20.7741 71.6094 21.0722 71.8292 21.2919C72.0489 21.5117 72.347 21.6352 72.6578 21.6352C72.9686 21.6352 73.2667 21.5117 73.4865 21.2919C73.7062 21.0722 73.8297 20.7741 73.8297 20.4633C73.8284 19.7431 73.6047 19.0408 73.1892 18.4525C72.7737 17.8642 72.1866 17.4186 71.5082 17.1766V16.8658C71.5082 16.555 71.3847 16.257 71.165 16.0372C70.9452 15.8174 70.6471 15.694 70.3363 15.694C70.0255 15.694 69.7275 15.8174 69.5077 16.0372C69.2879 16.257 69.1644 16.555 69.1644 16.8658V17.176C68.3889 17.4518 67.7357 17.9927 67.3203 18.7034C66.9049 19.414 66.754 20.2485 66.8942 21.0596C67.0344 21.8707 67.4567 22.6062 68.0865 23.1361C68.7164 23.6661 69.5132 23.9564 70.3363 23.9559C70.639 23.9569 70.929 24.0773 71.1435 24.2908C71.3579 24.5044 71.4794 24.794 71.4817 25.0966C71.4839 25.3992 71.3667 25.6906 71.1554 25.9073C70.9441 26.124 70.6559 26.2486 70.3533 26.2541H70.3535ZM78.7992 67.2973L78.5648 67.4233C76.9488 65.5795 74.2484 64.8877 72.1781 65.9369C72.1693 65.9412 72.1605 65.9459 72.1519 65.9504L71.3742 66.3696C70.2685 65.4707 68.9163 64.9283 67.4959 64.814C66.0756 64.6996 64.654 65.0186 63.4187 65.7289L58.6191 68.3399H52.2193C50.8535 68.3381 49.5056 68.0294 48.2752 67.4364L47.3877 67.0067C44.8265 65.7606 41.9704 65.2476 39.1357 65.5244C36.3009 65.8012 33.5981 66.8572 31.3264 68.5752C31.3008 68.5948 31.2758 68.6143 31.2519 68.6362L29.109 70.544C28.3742 71.1979 27.5136 71.695 26.5801 72.0049L25.4225 68.208C25.3492 67.9678 25.2008 67.7575 24.9989 67.6081C24.7971 67.4586 24.5527 67.378 24.3016 67.378H13.9385C13.7726 67.378 13.6087 67.4132 13.4574 67.4812C13.3062 67.5493 13.1712 67.6487 13.0612 67.7729C12.9512 67.897 12.8689 68.0431 12.8196 68.2014C12.7703 68.3598 12.7551 68.5268 12.7752 68.6914L16.2303 97.017C16.2649 97.301 16.4023 97.5625 16.6165 97.7523C16.8307 97.942 17.1068 98.0468 17.393 98.0469H32.9375C33.1206 98.0469 33.3012 98.004 33.4648 97.9216C33.6283 97.8392 33.7703 97.7196 33.8792 97.5724C33.9882 97.4253 34.0612 97.2546 34.0923 97.0741C34.1234 96.8936 34.1118 96.7084 34.0584 96.5332L32.0615 89.9834L38.2826 86.0504C39.087 85.6078 40.0292 85.4867 40.9193 85.7115C40.9435 85.7175 40.968 85.7228 40.9926 85.7274L53.9305 88.1102C57.4901 88.7468 61.1601 88.2286 64.4043 86.6313C64.454 86.6067 64.5019 86.5786 64.5476 86.5471L86.9246 71.183C87.1708 71.0139 87.3431 70.7572 87.4064 70.4653C87.4697 70.1734 87.4191 69.8684 87.265 69.6125C86.4237 68.2106 85.0738 67.1873 83.4967 66.756C81.9196 66.3247 80.2369 66.5186 78.7992 67.2973ZM73.2498 68.0215C74.2598 67.5174 75.5139 67.8688 76.3982 68.5924L68.1756 73.0285L67.8859 73.1813C67.6442 72.5576 67.3208 71.9688 66.9242 71.4301L73.2498 68.0215ZM64.5523 67.7809L64.5801 67.7653C65.2533 67.3761 66.0125 67.1601 66.7897 67.1367C67.5669 67.1132 68.3378 67.283 69.0332 67.6309L65.1676 69.7139C64.4944 69.2401 63.7482 68.8798 62.9586 68.6473L64.5523 67.7809ZM18.4305 95.7031L15.2621 69.7213H23.4336L31.3551 95.7031H18.4305ZM63.291 84.5666C60.5168 85.9135 57.3872 86.3467 54.3514 85.8043L41.4517 83.4287C39.9831 83.0678 38.4321 83.2788 37.1133 84.019C37.0948 84.0292 37.0766 84.04 37.0588 84.0514L31.3527 87.6588L27.2635 74.2459C28.5207 73.8374 29.6797 73.1728 30.6674 72.2942L32.7736 70.4192C34.7004 68.9727 36.9889 68.0857 39.3872 67.8558C41.7856 67.6259 44.2009 68.0621 46.3674 69.1162L47.2549 69.5459C48.8035 70.2925 50.5003 70.6813 52.2195 70.6834H60.826C61.9975 70.6849 63.1347 71.0793 64.0557 71.8035C64.9766 72.5277 65.6281 73.5398 65.9059 74.678L59.9367 74.4076C57.6564 74.3048 55.3715 74.4103 53.1103 74.7229C52.9579 74.744 52.8111 74.7949 52.6783 74.8727C52.5456 74.9505 52.4294 75.0537 52.3365 75.1764C52.2436 75.2991 52.1758 75.4389 52.137 75.5878C52.0981 75.7367 52.089 75.8918 52.1101 76.0443C52.1311 76.1967 52.182 76.3435 52.2599 76.4763C52.3377 76.609 52.4409 76.7252 52.5636 76.8181C52.6863 76.911 52.8261 76.9788 52.975 77.0176C53.1239 77.0565 53.279 77.0656 53.4314 77.0446C55.5511 76.7516 57.693 76.6527 59.8307 76.749L67.1717 77.0811C67.1894 77.0811 67.2072 77.0823 67.2246 77.0823C67.5354 77.0823 67.8335 76.9588 68.0532 76.739C68.273 76.5192 68.3965 76.2212 68.3965 75.9104C68.3965 75.7951 68.393 75.6807 68.3879 75.5666L69.2783 75.0979L79.9123 69.3612C80.6526 68.9605 81.5002 68.803 82.3349 68.9109C83.1697 69.0188 83.9494 69.3866 84.5635 69.9623L63.291 84.5666Z" fill="#24584F"/>
<path d="M21.1064 91.919C21.1064 92.5607 21.2967 93.188 21.6532 93.7215C22.0098 94.2551 22.5165 94.671 23.1093 94.9165C23.7022 95.1621 24.3546 95.2264 24.984 95.1012C25.6133 94.976 26.1915 94.667 26.6452 94.2132C27.099 93.7594 27.408 93.1813 27.5332 92.5519C27.6584 91.9226 27.5941 91.2702 27.3485 90.6773C27.103 90.0845 26.6871 89.5778 26.1535 89.2212C25.62 88.8647 24.9927 88.6744 24.351 88.6744C23.4908 88.6754 22.6661 89.0176 22.0578 89.6258C21.4496 90.2341 21.1074 91.0588 21.1064 91.919ZM24.351 91.0182C24.5291 91.0182 24.7033 91.071 24.8514 91.17C24.9996 91.269 25.115 91.4097 25.1832 91.5743C25.2514 91.7389 25.2692 91.92 25.2344 92.0947C25.1997 92.2694 25.1139 92.4299 24.9879 92.5559C24.8619 92.6819 24.7014 92.7677 24.5267 92.8024C24.352 92.8372 24.1709 92.8194 24.0063 92.7512C23.8417 92.683 23.701 92.5675 23.602 92.4194C23.503 92.2713 23.4502 92.0971 23.4502 91.919C23.4505 91.6801 23.5454 91.4512 23.7143 91.2823C23.8832 91.1134 24.1122 91.0184 24.351 91.0182Z" fill="#24584F"/>
</svg>
