<svg width="48" height="48" viewBox="0 0 48 48" fill="none" xmlns="http://www.w3.org/2000/svg">
<circle cx="23.9995" cy="23.9993" r="20" fill="#1DA1F2"/>
<path fill-rule="evenodd" clip-rule="evenodd" d="M35.9983 16.3082C35.1159 16.7001 34.1664 16.9641 33.1705 17.0833C34.1872 16.4737 34.968 15.509 35.3351 14.3595C34.3848 14.9242 33.3297 15.333 32.2089 15.5546C31.3106 14.5979 30.0299 13.9995 28.6148 13.9995C25.8958 13.9995 23.6911 16.2042 23.6911 18.9232C23.6911 19.3088 23.7351 19.6847 23.8191 20.0455C19.7266 19.8407 16.0988 17.8801 13.6702 14.9011C13.2462 15.6282 13.0038 16.4738 13.0038 17.3761C13.0038 19.084 13.8718 20.5911 15.1941 21.4742C14.3861 21.4486 13.6278 21.227 12.963 20.8583V20.9199C12.963 23.3061 14.6613 25.2956 16.9124 25.7491C16.4996 25.8611 16.0644 25.9219 15.6156 25.9219C15.2981 25.9219 14.9893 25.8907 14.6885 25.8331C15.3149 27.789 17.1339 29.2129 19.2882 29.2529C17.6035 30.5728 15.4805 31.3608 13.1734 31.3608C12.775 31.3608 12.3831 31.3376 11.9983 31.2912C14.1773 32.6879 16.7652 33.5038 19.5458 33.5038C28.602 33.5038 33.5545 26.0011 33.5545 19.4951C33.5545 19.2816 33.5505 19.0688 33.5401 18.8584C34.5032 18.1624 35.3383 17.2953 35.9983 16.3082Z" fill="white"/>
</svg>
