<svg width="100" height="94" viewBox="0 0 100 94" fill="none" xmlns="http://www.w3.org/2000/svg">
<path d="M98.5341 21.4545C98.5341 37.6221 79.252 53.6046 79.252 53.6046C79.252 53.6046 59.97 37.6221 59.97 21.4545C59.97 10.8054 68.6029 2.17249 79.252 2.17249C89.9012 2.17249 98.5341 10.8054 98.5341 21.4545Z" stroke="#24584F" stroke-width="3" stroke-miterlimit="10" stroke-linecap="round" stroke-linejoin="round"/>
<path d="M79.252 33.5115C85.9109 33.5115 91.309 28.1134 91.309 21.4545C91.309 14.7957 85.9109 9.39758 79.252 9.39758C72.5931 9.39758 67.1951 14.7957 67.1951 21.4545C67.1951 28.1134 72.5931 33.5115 79.252 33.5115Z" stroke="#24584F" stroke-width="3" stroke-miterlimit="10" stroke-linecap="round" stroke-linejoin="round"/>
<path d="M79.2521 33.5113V42.1809M92.3564 48.186H94.1612C96.4499 48.186 98.3066 50.0408 98.3066 52.3315V87.682C98.3066 89.9707 96.4499 91.8274 94.1612 91.8274H54.2704V48.186H73.6099M17.8463 22.6145V63.9928H5.61087C3.32159 63.9928 1.46582 65.8486 1.46582 68.1379V87.682C1.46582 89.9713 3.32159 91.8271 5.61087 91.8271H54.2698V6.39276C54.2698 3.97273 51.7386 2.38609 49.5603 3.44092L21.2797 17.1367C20.2506 17.6351 19.3828 18.4132 18.7755 19.382C18.1683 20.3508 17.8462 21.4711 17.8463 22.6145Z" stroke="#24584F" stroke-width="3" stroke-miterlimit="10" stroke-linecap="round" stroke-linejoin="round"/>
<path d="M54.2699 84.0309H83.0823M54.2699 84.0309V91.8273H83.0823V84.0309M54.2699 84.0309C54.2699 79.6169 57.8481 76.0388 62.2619 76.0388H75.0905C79.5043 76.0388 83.0823 79.6169 83.0823 84.0309M63.0691 59.8808V69.1433M69.5808 59.8808V69.1433M76.0927 59.8808V69.1433M82.6044 59.8808V69.1433M88.9739 59.8808V69.1433M8.07043 71.4075V80.6702M14.7416 71.4075V80.6702M25.9701 36.3312V57.1309M25.9701 24.618V29.4827M32.3014 24.618V57.1309M38.6329 24.618V57.1309M44.9642 24.618V57.1309M32.2101 64.5121H38.8811M35.5456 70.0066V91.8271M26.0111 70.0066H44.93V91.8273H26.0111V70.0066Z" stroke="#24584F" stroke-width="3" stroke-miterlimit="10" stroke-linecap="round" stroke-linejoin="round"/>
</svg>
